<svg xmlns="http://www.w3.org/2000/svg" width="239" height="10" viewBox="0 0 239 10" fill="none">
    <path
        d="M238.851 8.96848C236.856 5.67273 231.479 5.73243 226.838 5.45323C220.721 5.08429 214.592 4.75586 208.461 4.44394C208.276 4.43427 208.09 4.42693 207.904 4.41725C202.849 2.87317 197.014 2.60481 191.431 2.2246C184.034 1.72113 176.618 1.29843 169.186 0.958564C154.347 0.27936 139.455 -0.0388192 124.513 0.00377087C94.7658 0.0882664 64.8756 1.46696 35.1385 4.0714C26.7121 4.80838 18.3009 5.6726 9.90168 6.61297C7.71088 6.85826 5.50738 7.06948 3.32671 7.36304C2.36095 7.49248 0.701072 7.63334 0.145575 8.32541C-0.62641 9.2855 1.90253 10.6398 2.33804 9.66011C2.41085 9.49137 2.04411 9.11459 1.74298 8.99438C2.02415 8.91533 2.29777 8.82751 2.61626 8.78539C3.40556 8.68061 4.22507 8.66463 5.01905 8.57818C6.82563 8.38451 8.62889 8.19342 10.4359 8.00672C13.9459 7.64332 17.4601 7.29127 20.9753 6.95549C27.9019 6.29624 34.8326 5.69971 41.7711 5.17028C45.4958 4.88677 49.2251 4.62158 52.9524 4.37755C53.0053 4.97583 54.3868 6.02946 55.0923 6.03121C75.6434 6.06586 96.1763 6.30257 116.677 6.74934C137.179 7.19611 157.651 7.85036 178.082 8.71312C189.255 9.18371 200.397 9.78022 211.538 7.55742C212.062 7.4535 212.146 7.18592 212.003 6.86735C214.346 6.97728 216.685 7.08748 219.029 7.20438C222.374 7.37123 225.717 7.54995 229.06 7.72635C230.626 7.80944 232.221 7.84843 233.77 7.99346C234.294 8.04129 234.821 8.10513 235.324 8.20353C235.571 8.25066 235.843 8.30297 236.079 8.37668C236.303 8.44651 236.65 8.72908 236.533 8.53931C236.799 8.9772 237.528 9.77309 238.333 9.80949C239.146 9.84538 239.079 9.35317 238.844 8.96435L238.851 8.96848ZM179.96 6.56528C169.825 6.15138 159.685 5.7798 149.535 5.46266C129.129 4.82678 108.689 4.39656 88.2232 4.1759C89.1798 4.17317 90.1362 4.16812 91.0926 4.16307C103.141 4.09071 115.176 4.12674 127.2 4.26392C151.262 4.54192 175.277 5.21553 199.213 6.2824C200.053 6.32089 200.894 6.35938 201.738 6.39762C194.516 7.18365 187.081 6.85565 179.96 6.56528Z"
        fill="#76fa77" />
</svg>