<?xml version="1.0" encoding="UTF-8" standalone="no"?>
<svg
   width="375.68683"
   height="104.44625"
   viewBox="0 0 369.89474 102.83597"
   class="looka-1j8o68f"
   version="1.1"
   id="svg8"
   xmlns="http://www.w3.org/2000/svg"
   xmlns:svg="http://www.w3.org/2000/svg">
  <defs
     id="SvgjsDefs1357" />
  <g
     id="g9"
     transform="translate(-20.000001,-19.999999)">
    <g
       id="g8">
      <path
         fill="none"
         d="m 80.204049,116.4379 c 3.189067,-1.14239 6.201029,-2.6554 8.983106,-4.49331 v -6.06146 c -2.845413,1.65963 -5.855029,2.99906 -8.983106,4.0054 z"
         id="path1"
         style="stroke-width:1.17288" />
      <path
         fill="none"
         d="m 67.775016,118.85404 c 3.091717,-0.1255 6.097815,-0.58644 8.983105,-1.3453 v -6.6561 c -2.920477,0.692 -5.925401,1.10016 -8.983105,1.21276 z"
         id="path2"
         style="stroke-width:1.17288" />
      <path
         fill="none"
         d="m 25.397605,87.735126 c 2.326999,8.630068 7.339898,16.165834 14.074588,21.667824 v -5.7436 C 37.362178,102.1604 35.355376,100.48553 33.488147,98.6183 30.226362,95.356515 27.513485,91.691258 25.397605,87.735126 Z"
         id="path3"
         style="stroke-width:1.17288" />
      <path
         fill="none"
         d="m 42.916948,111.94576 c 2.782077,1.83791 5.795212,3.35093 8.983106,4.49331 v -6.5482 c -3.12925,-1.00633 -6.137693,-2.34576 -8.983106,-4.00539 z"
         id="path4"
         style="stroke-width:1.17288" />
      <path
         fill="none"
         d="m 55.345982,117.50874 c 2.886463,0.76003 5.892561,1.22097 8.983105,1.3453 v -6.78982 c -3.058877,-0.11142 -6.062628,-0.52076 -8.983105,-1.21276 z"
         id="path5"
         style="stroke-width:1.17288" />
      <path
         fill="none"
         d="m 92.63191,103.65935 v 5.7436 c 6.73469,-5.50081 11.74642,-13.037756 14.07459,-21.666652 -2.11588,3.95496 -4.82876,7.620217 -8.090544,10.882002 -1.867229,1.86723 -3.872858,3.5421 -5.984046,5.04105 z"
         id="path6"
         style="stroke-width:1.17288" />
      <path
         d="M 112.08064,65.032816 C 111.82261,53.113986 107.07361,41.945801 98.617129,33.488146 89.917861,24.791224 78.353241,20 66.052052,20 c -12.30119,0 -23.86581,4.790051 -32.563905,13.489319 -8.456481,8.456482 -13.205481,19.62584 -13.463516,31.54467 h -0.02463 v 11.748762 c 0,12.301189 4.790051,23.865809 13.488146,32.563899 8.698095,8.6981 20.262715,13.48932 32.563905,13.48932 12.301189,0 23.865809,-4.79005 32.565077,-13.48932 8.583151,-8.58315 13.352091,-19.958933 13.476421,-32.077153 h 0.0117 V 65.032816 Z M 39.472193,109.40295 c -6.73469,-5.50081 -11.747589,-13.037756 -14.074588,-21.667824 2.11588,3.956132 4.828757,7.620216 8.090542,10.883174 1.867229,1.86723 3.874031,3.54328 5.984046,5.04105 z m 12.427861,7.03495 c -3.189067,-1.14239 -6.201029,-2.6554 -8.983106,-4.49331 v -6.06146 c 2.845413,1.65963 5.855029,2.99906 8.983106,4.0054 z m 12.429033,2.41614 c -3.091717,-0.1255 -6.097815,-0.58644 -8.983105,-1.3453 v -6.6561 c 2.920477,0.692 5.925401,1.10016 8.983105,1.21276 z m 12.429034,-1.3453 c -2.886463,0.76003 -5.892561,1.22097 -8.983105,1.3453 v -6.78982 c 3.058877,-0.11142 6.062628,-0.52076 8.983105,-1.21276 z m 12.429034,-5.56298 c -2.782077,1.83791 -5.795212,3.35093 -8.983106,4.49331 v -6.5482 c 3.12925,-1.00633 6.137693,-2.34576 8.983106,-4.00539 z m 3.444755,-2.54281 v -5.7436 c 2.110015,-1.49895 4.116817,-3.17382 5.984046,-5.04105 3.261784,-3.261785 5.974664,-6.927042 8.090544,-10.882002 -2.327,8.628896 -7.338727,16.164662 -14.07459,21.666652 z m 15.17475,-37.984963 c -2.64485,20.693162 -20.354198,36.744053 -41.754608,36.744053 -21.400411,0 -39.110934,-16.050891 -41.75461,-36.744053 -0.225194,-1.758151 -0.353038,-3.545623 -0.353038,-5.364764 0,-3.788409 0.511377,-7.458358 1.454374,-10.953547 4.832275,-17.922815 21.223305,-31.1541 40.653274,-31.1541 19.429968,0 35.819828,13.231285 40.654448,31.155272 0.943,3.49519 1.45437,7.165138 1.45437,10.953548 0,1.817968 -0.12902,3.60544 -0.35421,5.363591 z M 78.620658,66.462559 c -1.413323,-0.856204 -3.085853,-1.548204 -4.971848,-2.057235 -1.67253,-0.45156 -3.441236,-0.91954 -5.307292,-1.406286 V 45.022271 c 1.29017,0.09735 2.507622,0.304949 3.628898,0.621627 1.402767,0.396435 2.640158,1.022754 3.675813,1.861365 1.018062,0.825709 1.841425,1.901242 2.445459,3.197277 0.612245,1.315974 0.960591,2.977948 1.035655,4.94018 0.02463,0.629838 0.541872,1.128313 1.17171,1.128313 h 1.20455 c 0.32137,0 0.628665,-0.132536 0.85034,-0.364767 0.221674,-0.23223 0.33779,-0.546563 0.321369,-0.867932 -0.127844,-2.465399 -0.59817,-4.604736 -1.399248,-6.359368 -0.817499,-1.7863 -1.94112,-3.26765 -3.341542,-4.400655 -1.378137,-1.115411 -3.014307,-1.95754 -4.863943,-2.501758 -1.467276,-0.43162 -3.054185,-0.703729 -4.730234,-0.812807 v -1.527093 c 0,-0.647431 -0.525451,-1.172882 -1.172882,-1.172882 h -1.204551 c -0.647431,0 -1.172882,0.525451 -1.172882,1.172882 v 1.444991 c -1.381655,0.06568 -2.776212,0.246305 -4.160213,0.539526 -1.835561,0.388224 -3.515129,1.059113 -4.991787,1.9939 -1.514191,0.958245 -2.765657,2.242551 -3.71921,3.816559 -0.97232,1.604503 -1.46493,3.581983 -1.46493,5.878486 0,2.311751 0.490265,4.230586 1.457893,5.703727 0.940651,1.433262 2.188598,2.603798 3.709826,3.47525 1.449683,0.831573 3.097582,1.48956 4.897957,1.955195 1.396903,0.36242 2.830165,0.717804 4.271637,1.059112 V 85.07151 c -1.552896,-0.132536 -3.003752,-0.403472 -4.326763,-0.809289 -1.597465,-0.490265 -2.981467,-1.24912 -4.112125,-2.255453 -1.123621,-0.998122 -2.012666,-2.300022 -2.642504,-3.868165 -0.643912,-1.598639 -0.969974,-3.569081 -0.969974,-5.857375 0,-0.647431 -0.525451,-1.172882 -1.172882,-1.172882 h -1.203377 c -0.640394,0 -1.162326,0.513723 -1.172882,1.154116 -0.04222,2.757447 0.350691,5.173584 1.170536,7.17804 0.826882,2.023222 2.012666,3.739149 3.524511,5.097346 1.505981,1.352334 3.323949,2.36805 5.403469,3.017827 1.693642,0.528969 3.539759,0.870278 5.501991,1.014543 v 4.250525 c 0,0.647431 0.525451,1.172883 1.172882,1.172883 h 1.20455 c 0.647431,0 1.172883,-0.525452 1.172883,-1.172883 v -4.155522 c 1.537648,-0.07155 3.071779,-0.28501 4.575414,-0.635702 1.931737,-0.450387 3.69927,-1.192821 5.254512,-2.208537 1.584564,-1.03331 2.881772,-2.364531 3.852919,-3.953787 0.993431,-1.626787 1.49777,-3.596057 1.49777,-5.852682 0,-2.451324 -0.450386,-4.45578 -1.337085,-5.958242 C 81.305386,68.57492 80.1067,67.363333 78.620658,66.462559 Z M 60.874949,43.069422 c 0.852685,-0.180624 1.704198,-0.316678 2.552192,-0.40699 -0.847994,0.09031 -1.699507,0.226366 -2.552192,0.40699 -0.317851,0.06685 -0.623973,0.152475 -0.930096,0.236922 0.306123,-0.08445 0.612245,-0.170068 0.930096,-0.236922 z m -1.554069,0.424583 c -0.696692,0.226366 -1.366408,0.491438 -1.998591,0.811635 0.63101,-0.320197 1.301899,-0.585269 1.998591,-0.811635 z m -3.085853,2.965047 c -0.574713,0.444522 -1.091954,0.951207 -1.550551,1.521228 0.458597,-0.570021 0.975838,-1.076706 1.550551,-1.521228 z m -2.317616,11.549372 c -0.180624,-0.281492 -0.338963,-0.582923 -0.473844,-0.906638 0.134881,0.322542 0.29322,0.625146 0.473844,0.906638 0.270936,0.421064 0.577058,0.81398 0.91954,1.176401 -0.342482,-0.362421 -0.648604,-0.755337 -0.91954,-1.176401 z m 3.504573,1.722964 c -1.054422,-0.604035 -1.901243,-1.396903 -2.518179,-2.357494 -0.595824,-0.926577 -0.898428,-2.19329 -0.898428,-3.763779 0,-1.652591 0.343655,-3.031901 1.021581,-4.099224 0.701384,-1.104855 1.615059,-2.00211 2.717568,-2.667134 1.14356,-0.689655 2.448978,-1.18813 3.876376,-1.48135 1.072015,-0.219329 2.133473,-0.361248 3.169128,-0.422238 V 62.149871 C 63.619494,61.882454 62.468896,61.598616 61.355831,61.30305 59.876826,60.908962 58.552642,60.379992 57.421984,59.731388 Z m 3.633589,2.703493 c 1.585737,0.422238 3.22308,0.812808 4.908512,1.174056 -1.685432,-0.360075 -3.322775,-0.751818 -4.908512,-1.174056 z m 12.288288,3.102274 c 0.446868,0.120807 0.878489,0.250997 1.297208,0.391743 -0.418719,-0.140746 -0.851513,-0.270936 -1.297208,-0.391743 -0.893737,-0.240441 -1.814449,-0.486746 -2.763311,-0.737743 0.947689,0.250997 1.869574,0.497302 2.763311,0.737743 z m -6.174053,21.986852 c 1.385174,0 2.759792,-0.118461 4.122682,-0.355384 -1.364062,0.236923 -2.738681,0.355384 -4.122682,0.355384 z m 10.36007,-2.681209 c 0.722495,-0.471499 1.375791,-1.006333 1.95754,-1.60333 -0.581749,0.59817 -1.233872,1.131831 -1.95754,1.60333 z m 1.382828,-4.744309 c -0.726014,1.168191 -1.686605,2.138164 -2.855968,2.881772 -1.206896,0.767065 -2.593243,1.333567 -4.119163,1.683086 -1.185784,0.272109 -2.390334,0.442176 -3.594884,0.510204 V 66.646702 c 1.117756,0.258034 2.266008,0.530143 3.429507,0.81398 1.537649,0.375322 2.949799,0.914848 4.197746,1.604503 1.178747,0.65095 2.159277,1.53413 2.916959,2.623738 0.720149,1.039174 1.086089,2.475954 1.086089,4.270464 -0.0012,1.615059 -0.35773,3.00727 -1.060286,4.139102 z m 2.261317,-9.44053 c 0.195871,0.330753 0.367112,0.692001 0.513722,1.080225 -0.14661,-0.389397 -0.317851,-0.749472 -0.513722,-1.080225 -0.195871,-0.330753 -0.408163,-0.646258 -0.638048,-0.945343 0.229885,0.299085 0.442177,0.613418 0.638048,0.945343 z m -0.150129,10.601683 c 0.441004,-0.722495 0.77293,-1.521228 0.993431,-2.395025 -0.220501,0.873797 -0.552427,1.671357 -0.993431,2.395025 z"
         id="path7"
         style="fill:#FAFAFA;stroke-width:1.17288" />
    </g>
    <path
       d="m 132,60.005772 h 10.70633 l 6.19486,16.429848 8.95562,-18.449911 9.09028,18.517246 6.39687,-16.497183 h 10.639 L 168.09179,98.454309 157.85681,78.79236 147.75649,98.454309 Z m 84.64065,33.196373 q -1.27938,1.750721 -4.41047,3.131098 -3.1311,1.380376 -6.83455,1.380376 -5.72351,0 -9.93198,-2.558746 -4.20846,-2.558747 -6.43053,-6.969219 -2.22207,-4.410471 -2.22207,-9.797307 0,-5.386835 2.22207,-9.797306 2.22207,-4.410472 6.43053,-6.969219 4.20847,-2.558746 9.93198,-2.558746 3.83812,0 6.76721,1.313041 2.92909,1.313041 4.47781,3.333104 v -3.83812 h 9.96564 v 37.034493 h -9.96564 z M 214.28391,70.81311 q -2.76076,-2.929092 -7.4069,-2.929092 -4.71348,0 -7.44057,2.929092 -2.72708,2.929092 -2.72708,7.575237 0,4.511475 2.79442,7.474235 2.79442,2.962759 7.37323,2.962759 4.71348,0 7.44057,-2.794421 2.72708,-2.794421 2.72708,-7.642573 0,-4.646145 -2.76075,-7.575237 z m 50.36691,22.389035 q -1.27938,1.750721 -4.41047,3.131098 -3.1311,1.380376 -6.83455,1.380376 -5.72351,0 -9.93198,-2.558746 -4.20846,-2.558747 -6.43053,-6.969219 -2.22207,-4.410471 -2.22207,-9.797307 0,-5.386835 2.22207,-9.797306 2.22207,-4.410472 6.43053,-6.969219 4.20847,-2.558746 9.93198,-2.558746 3.83812,0 6.76721,1.313041 2.92909,1.313041 4.47781,3.333104 v -3.83812 h 9.96564 v 37.034493 h -9.96564 z M 262.29408,70.81311 q -2.76076,-2.929092 -7.4069,-2.929092 -4.71348,0 -7.44057,2.929092 -2.72708,2.929092 -2.72708,7.575237 0,4.511475 2.79442,7.474235 2.79442,2.962759 7.37323,2.962759 4.71348,0 7.44057,-2.794421 2.72708,-2.794421 2.72708,-7.642573 0,-4.646145 -2.76075,-7.575237 z M 284.64944,46 h 10.10032 v 50.905594 h -10.10032 z m 19.79662,0 h 10.10032 v 50.905594 h -10.10032 z m 29.18992,50.030233 q -4.61248,-1.818057 -7.91192,-6.161193 -3.29943,-4.343136 -3.29943,-11.346022 0,-7.002886 3.3331,-11.312354 3.33311,-4.309468 7.97925,-6.127525 4.64615,-1.818057 8.82094,-1.818057 4.84816,0 9.22496,2.154734 4.3768,2.154734 7.17122,6.329532 2.79443,4.174797 2.9291,9.89831 0,1.750721 -0.0673,3.030094 -0.0673,1.279374 -0.13467,1.616051 h -29.22358 q 0.80802,3.905456 4.04012,5.3195 3.23211,1.414044 6.06019,1.414044 3.63612,0 5.79085,-1.313041 2.15474,-1.313041 3.70345,-2.996427 l 7.81091,4.511475 q -6.32953,8.618936 -17.30521,8.618936 -4.30946,0 -8.92194,-1.818057 z m 2.05373,-25.890477 q -2.62608,2.053731 -2.96276,5.01649 h 18.51725 q -0.20201,-1.750721 -1.34671,-3.366772 -1.1447,-1.61605 -3.06377,-2.65975 -1.91906,-1.043699 -4.34313,-1.043699 -4.1748,0 -6.80088,2.053731 z m 46.79813,13.568091 q 0,2.356741 0.80803,3.939124 0.80802,1.582383 3.77078,1.582383 1.34671,0 2.55875,-0.134671 v 8.484265 q -2.42408,0.269342 -4.51148,0.269342 -4.30946,0 -6.96921,-0.707022 -2.65975,-0.707022 -4.14113,-2.727085 -1.48138,-2.020064 -1.48138,-5.790848 v -20.53731 h -4.51148 v -8.820943 h 4.51148 v -9.89831 h 9.96564 v 9.89831 h 7.4069 v 8.820943 h -7.4069 z"
       id="path8"
       style="fill:#FAFAFA;stroke-width:3.36677" />
  </g>
</svg>
